<mxfile host="app.diagrams.net" modified="2024-04-16T11:40:28.030Z" agent="Mozilla/5.0 (Windows NT 10.0; Win64; x64) AppleWebKit/537.36 (KHTML, like Gecko) Chrome/123.0.0.0 Safari/537.36" version="24.2.2" etag="DWk69Gc7XC3ixHHyViEx" type="github">
  <diagram name="第 1 页" id="6w_5CT41nc2sR3_yLNFe">
    <mxGraphModel>
      <root>
        <mxCell id="0" />
        <mxCell id="1" parent="0" />
      </root>
    </mxGraphModel>
  </diagram>
</mxfile>
